<mxfile host="app.diagrams.net" modified="2023-05-30T03:05:42.854Z" agent="Mozilla/5.0 (Windows NT 10.0; Win64; x64) AppleWebKit/537.36 (KHTML, like Gecko) Chrome/113.0.0.0 Safari/537.36" etag="wBXv_aLA0rJNQCR9C7qW" version="21.3.5" type="device">
  <diagram name="第 1 页" id="rj4dokej_lCzVEFInStX">
    <mxGraphModel dx="830" dy="450" grid="1" gridSize="10" guides="1" tooltips="1" connect="1" arrows="1" fold="1" page="1" pageScale="1" pageWidth="827" pageHeight="1169" math="0" shadow="0">
      <root>
        <mxCell id="0" />
        <mxCell id="1" parent="0" />
        <mxCell id="ZasxWxpjN3gxQpKBaUf4-1" value="Client&lt;br&gt;" style="html=1;whiteSpace=wrap;" vertex="1" parent="1">
          <mxGeometry x="110" y="380" width="110" height="50" as="geometry" />
        </mxCell>
        <mxCell id="ZasxWxpjN3gxQpKBaUf4-2" value="&lt;i&gt;Component&lt;/i&gt;" style="swimlane;fontStyle=1;align=center;verticalAlign=top;childLayout=stackLayout;horizontal=1;startSize=26;horizontalStack=0;resizeParent=1;resizeParentMax=0;resizeLast=0;collapsible=1;marginBottom=0;whiteSpace=wrap;html=1;" vertex="1" parent="1">
          <mxGeometry x="340" y="353" width="160" height="104" as="geometry" />
        </mxCell>
        <mxCell id="ZasxWxpjN3gxQpKBaUf4-4" value="" style="line;strokeWidth=1;fillColor=none;align=left;verticalAlign=middle;spacingTop=-1;spacingLeft=3;spacingRight=3;rotatable=0;labelPosition=right;points=[];portConstraint=eastwest;strokeColor=inherit;" vertex="1" parent="ZasxWxpjN3gxQpKBaUf4-2">
          <mxGeometry y="26" width="160" height="8" as="geometry" />
        </mxCell>
        <mxCell id="ZasxWxpjN3gxQpKBaUf4-5" value="+ Operation()&lt;br&gt;+ Add(Component)&lt;br&gt;+Remove(Component)&lt;br&gt;+GetChild(int)" style="text;strokeColor=none;fillColor=none;align=left;verticalAlign=top;spacingLeft=4;spacingRight=4;overflow=hidden;rotatable=0;points=[[0,0.5],[1,0.5]];portConstraint=eastwest;whiteSpace=wrap;html=1;" vertex="1" parent="ZasxWxpjN3gxQpKBaUf4-2">
          <mxGeometry y="34" width="160" height="70" as="geometry" />
        </mxCell>
        <mxCell id="ZasxWxpjN3gxQpKBaUf4-6" value="Leaf&lt;br&gt;" style="swimlane;fontStyle=1;align=center;verticalAlign=top;childLayout=stackLayout;horizontal=1;startSize=26;horizontalStack=0;resizeParent=1;resizeParentMax=0;resizeLast=0;collapsible=1;marginBottom=0;whiteSpace=wrap;html=1;" vertex="1" parent="1">
          <mxGeometry x="210" y="585" width="160" height="86" as="geometry" />
        </mxCell>
        <mxCell id="ZasxWxpjN3gxQpKBaUf4-7" value="+ field: type" style="text;strokeColor=none;fillColor=none;align=left;verticalAlign=top;spacingLeft=4;spacingRight=4;overflow=hidden;rotatable=0;points=[[0,0.5],[1,0.5]];portConstraint=eastwest;whiteSpace=wrap;html=1;" vertex="1" parent="ZasxWxpjN3gxQpKBaUf4-6">
          <mxGeometry y="26" width="160" height="26" as="geometry" />
        </mxCell>
        <mxCell id="ZasxWxpjN3gxQpKBaUf4-8" value="" style="line;strokeWidth=1;fillColor=none;align=left;verticalAlign=middle;spacingTop=-1;spacingLeft=3;spacingRight=3;rotatable=0;labelPosition=right;points=[];portConstraint=eastwest;strokeColor=inherit;" vertex="1" parent="ZasxWxpjN3gxQpKBaUf4-6">
          <mxGeometry y="52" width="160" height="8" as="geometry" />
        </mxCell>
        <mxCell id="ZasxWxpjN3gxQpKBaUf4-9" value="+ method(type): type" style="text;strokeColor=none;fillColor=none;align=left;verticalAlign=top;spacingLeft=4;spacingRight=4;overflow=hidden;rotatable=0;points=[[0,0.5],[1,0.5]];portConstraint=eastwest;whiteSpace=wrap;html=1;" vertex="1" parent="ZasxWxpjN3gxQpKBaUf4-6">
          <mxGeometry y="60" width="160" height="26" as="geometry" />
        </mxCell>
        <mxCell id="ZasxWxpjN3gxQpKBaUf4-10" value="Composite" style="swimlane;fontStyle=1;align=center;verticalAlign=top;childLayout=stackLayout;horizontal=1;startSize=26;horizontalStack=0;resizeParent=1;resizeParentMax=0;resizeLast=0;collapsible=1;marginBottom=0;whiteSpace=wrap;html=1;" vertex="1" parent="1">
          <mxGeometry x="440" y="570" width="160" height="126" as="geometry" />
        </mxCell>
        <mxCell id="ZasxWxpjN3gxQpKBaUf4-19" value="- Children" style="text;html=1;align=center;verticalAlign=middle;resizable=0;points=[];autosize=1;strokeColor=none;fillColor=none;" vertex="1" parent="ZasxWxpjN3gxQpKBaUf4-10">
          <mxGeometry y="26" width="160" height="30" as="geometry" />
        </mxCell>
        <mxCell id="ZasxWxpjN3gxQpKBaUf4-13" value="+ Operation()&lt;br&gt;+ Add(Component)&lt;br&gt;+Remove(Component)&lt;br&gt;+GetChild(int)" style="text;strokeColor=none;fillColor=none;align=left;verticalAlign=top;spacingLeft=4;spacingRight=4;overflow=hidden;rotatable=0;points=[[0,0.5],[1,0.5]];portConstraint=eastwest;whiteSpace=wrap;html=1;" vertex="1" parent="ZasxWxpjN3gxQpKBaUf4-10">
          <mxGeometry y="56" width="160" height="70" as="geometry" />
        </mxCell>
        <mxCell id="ZasxWxpjN3gxQpKBaUf4-15" value="" style="endArrow=block;dashed=1;endFill=0;endSize=12;html=1;rounded=0;exitX=1;exitY=0.177;exitDx=0;exitDy=0;exitPerimeter=0;" edge="1" parent="1" source="ZasxWxpjN3gxQpKBaUf4-13" target="ZasxWxpjN3gxQpKBaUf4-16">
          <mxGeometry width="160" relative="1" as="geometry">
            <mxPoint x="620" y="612.8" as="sourcePoint" />
            <mxPoint x="700" y="616" as="targetPoint" />
          </mxGeometry>
        </mxCell>
        <mxCell id="ZasxWxpjN3gxQpKBaUf4-16" value="forall g in children&lt;br&gt;g.Operation();" style="html=1;whiteSpace=wrap;" vertex="1" parent="1">
          <mxGeometry x="680" y="620" width="110" height="50" as="geometry" />
        </mxCell>
        <mxCell id="ZasxWxpjN3gxQpKBaUf4-17" value="Extends" style="endArrow=block;endSize=16;endFill=0;html=1;rounded=0;entryX=0.465;entryY=0.989;entryDx=0;entryDy=0;entryPerimeter=0;exitX=0.423;exitY=-0.044;exitDx=0;exitDy=0;exitPerimeter=0;" edge="1" parent="1" source="ZasxWxpjN3gxQpKBaUf4-6" target="ZasxWxpjN3gxQpKBaUf4-5">
          <mxGeometry width="160" relative="1" as="geometry">
            <mxPoint x="460" y="630" as="sourcePoint" />
            <mxPoint x="620" y="630" as="targetPoint" />
          </mxGeometry>
        </mxCell>
        <mxCell id="ZasxWxpjN3gxQpKBaUf4-18" value="Extends" style="endArrow=block;endSize=16;endFill=0;html=1;rounded=0;exitX=0.445;exitY=-0.027;exitDx=0;exitDy=0;exitPerimeter=0;entryX=0.548;entryY=1.023;entryDx=0;entryDy=0;entryPerimeter=0;" edge="1" parent="1" source="ZasxWxpjN3gxQpKBaUf4-10" target="ZasxWxpjN3gxQpKBaUf4-5">
          <mxGeometry width="160" relative="1" as="geometry">
            <mxPoint x="258" y="591" as="sourcePoint" />
            <mxPoint x="420" y="510" as="targetPoint" />
          </mxGeometry>
        </mxCell>
        <mxCell id="ZasxWxpjN3gxQpKBaUf4-20" value="" style="endArrow=open;html=1;endSize=12;startArrow=diamondThin;startSize=14;startFill=1;align=left;verticalAlign=bottom;rounded=0;entryX=-0.01;entryY=0.28;entryDx=0;entryDy=0;entryPerimeter=0;" edge="1" parent="1" source="ZasxWxpjN3gxQpKBaUf4-1" target="ZasxWxpjN3gxQpKBaUf4-5">
          <mxGeometry x="-1" y="3" relative="1" as="geometry">
            <mxPoint x="420" y="540" as="sourcePoint" />
            <mxPoint x="580" y="540" as="targetPoint" />
          </mxGeometry>
        </mxCell>
        <mxCell id="ZasxWxpjN3gxQpKBaUf4-21" value="1" style="endArrow=open;html=1;endSize=12;startArrow=diamondThin;startSize=14;startFill=0;edgeStyle=orthogonalEdgeStyle;align=left;verticalAlign=bottom;rounded=0;entryX=0.99;entryY=0.186;entryDx=0;entryDy=0;entryPerimeter=0;" edge="1" parent="1" source="ZasxWxpjN3gxQpKBaUf4-10" target="ZasxWxpjN3gxQpKBaUf4-5">
          <mxGeometry x="-1" y="3" relative="1" as="geometry">
            <mxPoint x="560" y="610" as="sourcePoint" />
            <mxPoint x="720" y="610" as="targetPoint" />
            <Array as="points">
              <mxPoint x="590" y="400" />
            </Array>
          </mxGeometry>
        </mxCell>
        <mxCell id="ZasxWxpjN3gxQpKBaUf4-22" value="Children" style="text;html=1;align=center;verticalAlign=middle;resizable=0;points=[];autosize=1;strokeColor=none;fillColor=none;rotation=90;" vertex="1" parent="1">
          <mxGeometry x="540" y="520" width="70" height="30" as="geometry" />
        </mxCell>
      </root>
    </mxGraphModel>
  </diagram>
</mxfile>
